<svg id="Layer_1" enable-background="new 0 0 512 512" height="512" viewBox="0 0 512 512" width="512" xmlns="http://www.w3.org/2000/svg"><g><path d="m437.02 74.98c-48.353-48.351-112.64-74.98-181.02-74.98s-132.667 26.629-181.02 74.98c-48.351 48.353-74.98 112.64-74.98 181.02s26.629 132.667 74.98 181.02c48.353 48.351 112.64 74.98 181.02 74.98 52.389 0 102.77-15.733 145.695-45.498 3.404-2.36 4.25-7.033 1.89-10.437-2.36-3.403-7.033-4.25-10.437-1.89-40.403 28.016-87.828 42.825-137.148 42.825-64.374 0-124.894-25.068-170.413-70.587s-70.587-106.039-70.587-170.413 25.068-124.894 70.587-170.413 106.039-70.587 170.413-70.587 124.894 25.068 170.413 70.587 70.587 106.039 70.587 170.413c0 33.396-6.702 65.724-19.918 96.085-12.768 29.329-30.994 55.488-54.173 77.75-2.987 2.869-3.083 7.617-.214 10.604 2.87 2.988 7.618 3.083 10.604.214 24.615-23.641 43.973-51.425 57.536-82.581 14.044-32.261 21.165-66.604 21.165-102.072 0-68.38-26.629-132.667-74.98-181.02z"/><path d="m157.761 325.237c0 54.169 44.07 98.239 98.239 98.239s98.239-44.07 98.239-98.239v-138.474c0-54.169-44.07-98.239-98.239-98.239s-98.239 44.07-98.239 98.239zm15-138.474c0-45.898 37.341-83.239 83.239-83.239s83.239 37.341 83.239 83.239v138.475c0 45.898-37.341 83.239-83.239 83.239s-83.239-37.341-83.239-83.239z"/><path d="m169.56 100.381c-3.103-2.743-7.843-2.453-10.587.648-20.967 23.703-32.514 54.15-32.514 85.733v138.475c0 71.429 58.112 129.541 129.541 129.541s129.541-58.112 129.541-129.541v-138.474c0-71.429-58.112-129.541-129.541-129.541-21.877 0-43.525 5.589-62.604 16.164-3.623 2.008-4.932 6.572-2.924 10.195 2.007 3.623 6.571 4.933 10.195 2.924 16.859-9.344 35.993-14.283 55.333-14.283 63.158 0 114.541 51.383 114.541 114.541v138.475c0 63.158-51.383 114.541-114.541 114.541s-114.541-51.383-114.541-114.541v-138.475c0-27.918 10.21-54.836 28.749-75.794 2.745-3.103 2.455-7.843-.648-10.588z"/><path d="m252.969 285.722c4.078.735 7.977-1.972 8.713-6.049l4.626-25.633 7.677 26.02c2.41 8.257 14.33 8.109 16.688-.078l7.41-25.994 4.923 25.76c1.82 9.525 16.553 6.709 14.733-2.815l-9.92-51.905c-1.727-8.473-14.536-8.924-16.882-.689l-8.724 30.603-9.051-30.677c-2.472-8.443-15.269-7.5-16.893.945l-9.349 51.799c-.736 4.076 1.973 7.977 6.049 8.713z"/><path d="m203.628 286.256c4.142 0 7.5-3.358 7.5-7.5v-11.77l17.794 17.167c6.952 6.707 17.411-4.045 10.415-10.795l-23.068-22.255 21.048-19.347c7.14-6.562-3.01-17.603-10.151-11.043l-16.038 14.742v-9.891c0-9.697-15-9.697-15 0v53.192c0 4.142 3.358 7.5 7.5 7.5z"/><path d="m54.532 244.66c-4.142 0-7.5 3.358-7.5 7.5s3.358 7.5 7.5 7.5h42c4.142 0 7.5-3.358 7.5-7.5s-3.358-7.5-7.5-7.5z"/><path d="m464.968 252.16c0-4.142-3.358-7.5-7.5-7.5h-42c-4.142 0-7.5 3.358-7.5 7.5s3.358 7.5 7.5 7.5h42c4.142 0 7.5-3.358 7.5-7.5z"/></g></svg>